# xmcd
#
# Track frame offsets: 
#        150
#        22156
#        42678
#        57442
#        76157
#        99483
#
# Disc length: 1544 seconds
#
# Revision: 0
# Processed by: cddbd v1.5.2PL0 Copyright (c) Steve Scherf et al.
# Submitted via: ExactAudioCopyFreeDBPlugin 1.0
#
DISCID=4b060606
DTITLE=Bria Kelly - Brighter Side
DYEAR=1900
DGENRE=Soul
TTITLE0=May Her
TTITLE1=I'm In Love Again
TTITLE2=I Love You Dear
TTITLE3=My Life
TTITLE4=Think Again
TTITLE5=Brighter Side
EXTD=
EXTT0=
EXTT1=
EXTT2=
EXTT3=
EXTT4=
EXTT5=
PLAYORDER=
